<svg version="1" xmlns="http://www.w3.org/2000/svg" width="122.667" height="122.667" viewBox="0 0 92.000000 92.000000"><path d="M42.5 10.7c-1.1 2.1-2.9 5.4-4 7.3-3.9 6.4-12.6 23-12.1 23 .3 0 4.4-5.4 9.1-12 6.8-9.3 8.9-11.7 9.9-10.7 5.6 5.9 16.8 19.9 16.2 20.4-.3.3-.6.1-.6-.4 0-.6-1.9-2.1-4.3-3.2-11.5-5.6-26.6.2-31.7 12.2-1.9 4.3-2.2 6.3-1.7 12.3.8 11.2 4.4 17.3 13.3 23.1 1.6 1.1 1 1.2-3.6.7-3-.3-5.7-.7-6-.9-.3-.2-2.7-.6-5.5-1-2.7-.3-6.7-1-8.7-1.3l-3.7-.7L13.4 69c2.4-5.8 5.3-12.8 6.5-15.5 2.4-5.4 1.5-5.1-1.7.5-1.1 1.9-5.2 9.1-9.2 16C5.1 76.9 1.4 83.3.9 84.3 0 85.9 1.1 86 21.4 86c12.3-.1 21.8-.5 22.1-1.1.4-.5 1.3-.5 2.3 0 .9.5 11.8 1 24.1 1l22.3.2-2.5-4.3c-1.3-2.4-3.4-6-4.5-8C79.9 64.3 70.7 49 70.4 49c-.2 0 .8 2.6 2.2 5.7C77.1 64.9 83 79.3 82.8 79.5c-.8.6-27.1 4.6-27.5 4.2-.2-.3.6-.8 1.9-1.2 3.5-1.1 8.7-6.5 11-11.5 1.7-3.5 2.1-6 1.8-11.5-.1-3.9-.3-8.2-.4-9.7 0-1.4-.4-2.4-.8-2.1-.5.2-.9-.2-1-.9 0-.7-.2-1.8-.2-2.3C67.4 42.9 45.9 7 45.1 7c-.4 0-1.5 1.7-2.6 3.7zm20.4 33.9c2.3 2.6 6.1 10.6 6.1 12.7 0 .7-1.1 1.7-2.5 2.4-2.4 1.1-2.8.8-6.7-4.5-2.3-3.1-4.5-6.2-5-6.9-1.2-1.5 2-6.2 4.3-6.3.8 0 2.6 1.2 3.8 2.6zm-10.5.7c1.3 2-1.3 4.6-11 11.3l-5.6 3.9-1.9-2.4-1.9-2.4 5.7-4.5c7.3-5.6 11.5-8.3 12.7-7.9.5.2 1.4 1.1 2 2zM39.6 66.2c2.1 2.9 4.2 5.4 4.6 5.6 1.5.7.8 1.9-1.7 3-5.6 2.6-10.8.7-14.5-5.3-3.4-5.5-3-6.1 7.2-8.4.3 0 2.3 2.3 4.4 5.1zm2.1 18.4c-.3.3-1.2.4-1.9.1-.8-.3-.5-.6.6-.6 1.1-.1 1.7.2 1.3.5z"/></svg>