<svg xmlns="http://www.w3.org/2000/svg" width="91.931" height="79.576" viewBox="0 0 91.931 79.576"><defs><style>.a{fill:#7c0dd1;opacity:0.86;}.b{fill:#430791;}.c{fill:#9d36e1;}</style></defs><g transform="translate(-80.069 -91.827)"><path class="a" d="M14.009,18.371c13.008,0,33.1-27.925,33.1-14.917A23.553,23.553,0,1,1,0,3.454C0-9.554,1,18.371,14.009,18.371Z" transform="translate(103.629 142.768) rotate(2)"/><path class="b" d="M23.253,0,46.506,40.287H0l37.764-6.174Z" transform="translate(125.494 131.056)"/><path class="b" d="M23.253,0,46.506,40.287H0l37.764-6.174Z" transform="translate(114.525 152.44) rotate(-121)"/><path class="b" d="M23.253,0,0,40.287H46.506L8.788,34.069Z" transform="translate(80.069 131.056)"/><path class="a" d="M14.009,18.371c13.008,0,33.1-27.925,33.1-14.917A23.553,23.553,0,1,1,0,3.454C0-9.554,1,18.371,14.009,18.371Z" transform="translate(150.116 145.453) rotate(-180)"/><path class="c" d="M9.968,0s-28.54,18.621,10.962,17.941S32.558,0,32.558,0V34.488H9.968Z" transform="matrix(0.809, -0.588, 0.588, 0.809, 97.287, 137.86)"/></g></svg>